<?xml version="1.0" standalone="no"?>
<!DOCTYPE svg PUBLIC "-//W3C//DTD SVG 20010904//EN"
 "http://www.w3.org/TR/2001/REC-SVG-20010904/DTD/svg10.dtd">
<svg version="1.0" xmlns="http://www.w3.org/2000/svg"
 width="1000.000000pt" height="1000.000000pt" viewBox="0 0 1000.000000 1000.000000"
 preserveAspectRatio="xMidYMid meet">
<metadata>
Created by potrace 1.14, written by Peter Selinger 2001-2017
</metadata>
<g transform="translate(0.000000,1000.000000) scale(0.100000,-0.100000)"
fill="#000000" stroke="none">
<path d="M4486 9002 c-3 -5 -28 -9 -56 -8 -27 0 -50 -3 -50 -9 0 -5 -5 -3 -10
5 -7 12 -10 12 -10 1 0 -7 -6 -11 -14 -8 -8 3 -17 3 -20 -1 -4 -3 -12 -7 -19
-8 -29 -5 -42 -10 -55 -21 -7 -7 -20 -9 -29 -6 -10 4 -14 2 -9 -5 3 -6 -3 -13
-14 -17 -11 -3 -20 -11 -20 -16 0 -5 -4 -9 -10 -9 -13 0 -45 -32 -60 -60 -6
-11 -15 -18 -20 -15 -6 4 -7 -1 -3 -11 5 -13 3 -15 -7 -9 -7 5 -11 4 -8 -1 3
-5 1 -20 -5 -34 -5 -14 -12 -36 -14 -50 -2 -13 -9 -30 -15 -37 -7 -9 -7 -13 1
-13 7 0 9 -5 6 -10 -4 -6 -11 -7 -17 -4 -7 4 -7 0 0 -13 7 -12 7 -25 1 -36 -6
-9 -6 -17 -2 -17 4 0 8 -22 8 -50 0 -27 -3 -50 -7 -50 -4 0 -4 -10 1 -22 4
-13 5 -34 1 -48 -4 -14 -3 -33 2 -42 6 -12 5 -18 -2 -18 -8 0 -8 -6 0 -20 7
-13 7 -20 1 -20 -6 0 -8 -7 -5 -15 4 -8 11 -12 18 -9 6 3 3 -1 -6 -9 -10 -8
-15 -17 -12 -20 10 -10 12 -57 2 -57 -5 0 -6 -5 -2 -11 9 -15 11 -99 2 -99 -4
0 -3 -13 2 -30 5 -17 5 -30 0 -30 -5 0 -5 -13 0 -30 5 -19 5 -30 -1 -30 -6 0
-7 -5 -3 -11 13 -21 10 -54 -6 -67 -13 -10 -12 -11 5 -6 16 6 18 4 8 -6 -9 -9
-9 -18 -1 -33 7 -15 7 -22 -3 -28 -11 -7 -11 -9 1 -9 12 0 12 -2 1 -9 -10 -7
-11 -13 -2 -30 9 -16 9 -21 -1 -21 -8 0 -9 -3 -3 -8 12 -8 14 -62 3 -62 -4 0
-3 -11 2 -24 5 -13 6 -26 3 -29 -3 -3 -5 -34 -5 -69 0 -35 -6 -66 -12 -70 -7
-5 -6 -8 4 -8 9 0 7 -6 -8 -16 -15 -10 -21 -22 -17 -32 4 -12 1 -11 -16 4 -11
10 -24 18 -28 17 -13 -5 -41 9 -36 18 4 5 -1 9 -9 9 -9 0 -16 5 -16 10 0 6 -7
10 -16 10 -9 0 -18 9 -21 20 -3 11 -14 20 -25 20 -10 0 -16 5 -13 10 4 6 3 9
-2 8 -4 -2 -22 12 -39 29 -17 18 -34 30 -37 26 -4 -3 -7 -1 -7 6 0 7 -4 10 -9
6 -5 -3 -12 4 -16 15 -4 11 -10 18 -15 15 -5 -3 -14 4 -20 15 -6 11 -16 19
-23 17 -7 -1 -11 5 -9 13 2 8 0 12 -4 8 -4 -4 -18 4 -31 18 -12 14 -23 22 -23
19 0 -3 -11 5 -24 17 -13 13 -21 27 -18 32 3 5 0 6 -6 2 -6 -3 -22 5 -36 19
-14 14 -30 25 -36 25 -5 0 -10 6 -10 14 0 7 -9 16 -21 19 -12 3 -18 10 -14 16
4 7 0 8 -10 5 -9 -4 -15 -3 -13 2 2 5 -1 10 -5 11 -4 1 -17 12 -28 25 -11 13
-17 17 -13 9 5 -9 3 -12 -4 -7 -7 4 -12 14 -12 23 0 9 -3 14 -6 10 -8 -8 -44
25 -38 35 3 4 -3 5 -12 1 -12 -4 -15 -3 -10 5 4 7 1 12 -8 12 -8 0 -34 18 -56
40 -22 22 -44 40 -48 40 -4 0 -14 9 -22 20 -8 11 -20 20 -28 20 -7 0 -11 4 -8
8 3 5 -6 15 -19 22 -13 7 -22 18 -18 23 3 6 1 7 -5 3 -6 -3 -13 -2 -17 4 -4 6
-11 7 -17 4 -7 -4 -8 -2 -4 4 4 7 2 12 -4 12 -6 0 -8 5 -5 10 3 6 -3 10 -14
10 -12 0 -21 7 -21 16 0 8 -4 12 -10 9 -5 -3 -10 -2 -10 3 0 5 -11 15 -25 22
-13 7 -22 17 -19 22 3 4 -2 8 -10 8 -8 0 -20 9 -26 21 -7 12 -18 18 -26 15 -8
-3 -14 0 -14 8 0 7 -11 19 -25 26 -14 7 -25 17 -25 22 0 4 -6 8 -14 8 -8 0
-17 6 -19 13 -4 10 -6 10 -6 0 -1 -8 -9 -5 -21 7 -11 11 -32 20 -46 20 -14 0
-23 4 -19 10 3 6 -4 11 -17 11 -96 6 -165 4 -175 -4 -7 -5 -13 -6 -13 -2 0 4
-8 1 -17 -6 -13 -11 -15 -11 -9 -1 7 11 4 11 -15 0 -13 -7 -26 -16 -29 -19 -6
-6 -43 -22 -50 -22 -3 1 -11 -5 -18 -13 -7 -8 -9 -14 -5 -14 4 0 -3 -7 -15
-16 -13 -9 -19 -20 -15 -27 4 -7 -2 -5 -12 3 -14 11 -17 11 -11 1 5 -8 3 -17
-5 -22 -8 -4 -14 -14 -14 -21 -1 -7 -6 -12 -12 -11 -7 2 -10 -6 -8 -17 2 -11
-1 -20 -7 -20 -5 0 -7 -7 -4 -16 4 -11 2 -15 -7 -11 -10 4 -13 -2 -9 -19 2
-13 -1 -31 -8 -39 -9 -11 -9 -15 -1 -15 8 0 9 -5 1 -19 -13 -26 -13 -34 3 -25
8 6 8 3 -1 -9 -8 -9 -11 -25 -7 -38 4 -12 3 -19 -2 -16 -5 3 -8 -4 -7 -16 1
-12 3 -22 4 -22 1 0 3 -15 4 -32 3 -22 0 -31 -8 -27 -6 3 -2 -2 8 -10 19 -16
19 -16 -5 -16 -21 -1 -22 -2 -6 -11 9 -5 17 -15 17 -20 0 -6 -5 -7 -11 -3 -7
4 -6 -2 2 -17 12 -23 11 -23 -7 -9 -18 14 -18 14 -5 -3 14 -18 19 -112 7 -124
-3 -4 2 -15 11 -25 16 -18 16 -18 -3 -12 -17 7 -17 6 -5 -9 9 -12 10 -17 2
-17 -7 0 -9 -5 -6 -10 12 -19 12 -105 1 -112 -8 -5 -7 -8 2 -8 18 0 15 -21 -5
-36 -17 -13 -17 -14 0 -8 9 3 17 1 17 -5 0 -6 -5 -11 -12 -11 -9 0 -9 -3 -1
-11 8 -8 8 -20 3 -35 -6 -14 -6 -26 0 -29 5 -3 6 -15 1 -28 -5 -13 -4 -29 3
-40 9 -14 8 -20 -4 -27 -10 -6 -11 -10 -2 -10 6 0 12 -7 12 -15 0 -8 -6 -15
-12 -15 -9 0 -8 -4 2 -10 12 -8 13 -11 1 -19 -9 -6 -10 -11 -2 -15 6 -4 11
-12 11 -17 0 -6 -6 -7 -12 -3 -9 5 -9 2 1 -9 11 -14 11 -17 0 -17 -10 0 -10
-3 -2 -11 8 -8 8 -20 3 -35 -6 -14 -6 -26 0 -29 6 -4 10 -11 10 -16 0 -6 -6
-7 -12 -3 -9 5 -9 2 1 -9 9 -12 10 -17 2 -17 -7 0 -9 -5 -5 -12 9 -13 9 -107
0 -115 -3 -3 -1 -12 5 -20 9 -10 8 -13 0 -13 -7 0 -9 -5 -5 -11 9 -16 8 -164
-1 -179 -5 -9 -4 -11 4 -6 9 6 10 0 5 -20 -5 -21 -4 -25 6 -19 9 6 11 4 5 -6
-5 -7 -10 -25 -11 -38 -3 -20 -1 -23 7 -11 8 11 10 8 7 -16 -2 -17 2 -36 9
-43 7 -6 13 -21 13 -31 0 -11 3 -20 8 -20 4 0 13 -9 20 -21 10 -15 10 -19 1
-14 -8 5 -10 4 -5 -3 4 -7 14 -12 22 -12 8 0 13 -6 11 -12 -1 -7 4 -12 11 -10
8 1 11 -2 8 -7 -6 -10 1 -18 39 -46 l20 -15 -20 5 c-11 3 -1 -4 23 -17 23 -12
42 -28 42 -35 0 -7 5 -13 11 -13 15 0 39 -26 31 -35 -4 -4 -2 -5 4 -3 14 4 85
-53 78 -63 -3 -5 1 -6 9 -3 8 3 17 -2 21 -11 3 -9 10 -13 16 -10 5 3 10 -1 10
-10 0 -8 8 -18 18 -22 9 -3 28 -17 41 -32 13 -14 20 -19 15 -11 -4 8 4 4 18
-10 19 -18 23 -27 15 -33 -7 -5 -3 -6 11 -2 17 5 22 2 22 -11 0 -10 3 -14 6
-11 4 3 19 -7 35 -24 15 -16 32 -31 36 -32 4 -1 7 -6 5 -10 -1 -5 2 -6 8 -2 5
3 10 1 10 -6 0 -7 3 -10 6 -6 8 8 33 -16 27 -26 -2 -4 0 -6 5 -5 5 2 19 -8 31
-21 12 -13 21 -20 21 -15 0 5 8 -3 18 -19 10 -15 21 -24 25 -21 4 4 24 -11 45
-32 52 -51 69 -64 76 -57 3 4 6 1 6 -6 0 -7 4 -9 10 -6 6 3 7 -1 4 -9 -4 -10
-1 -16 9 -16 9 0 32 -15 51 -34 20 -18 38 -31 41 -28 3 3 5 -3 5 -12 0 -12 5
-16 15 -12 8 3 15 0 15 -7 0 -14 35 -47 49 -47 5 0 12 -7 15 -16 3 -8 10 -12
16 -9 5 3 10 -1 10 -10 0 -9 4 -14 8 -11 5 3 15 -4 22 -15 8 -10 19 -19 25
-19 5 -1 21 -14 35 -30 13 -17 31 -30 39 -30 8 0 11 -3 8 -7 -4 -3 3 -11 16
-17 12 -7 23 -21 23 -31 1 -11 3 -22 4 -25 11 -30 4 -48 -29 -82 -21 -21 -44
-38 -50 -38 -7 0 -10 -4 -7 -9 3 -5 -4 -11 -15 -14 -14 -4 -18 -10 -13 -18 5
-9 2 -10 -9 -6 -11 4 -17 1 -17 -9 0 -8 -10 -18 -22 -23 -13 -5 -29 -18 -37
-29 -8 -12 -18 -19 -23 -16 -4 3 -11 -2 -14 -10 -3 -9 -13 -16 -22 -16 -8 0
-13 -3 -9 -6 7 -7 -15 -33 -24 -28 -4 2 -14 -7 -23 -21 -16 -24 -45 -37 -30
-13 4 7 3 8 -4 4 -7 -4 -12 -13 -12 -20 0 -8 -10 -21 -22 -29 -13 -8 -38 -29
-56 -46 -19 -17 -38 -28 -44 -25 -7 4 -8 2 -4 -4 4 -7 1 -12 -9 -12 -9 0 -14
-4 -11 -8 3 -5 -4 -15 -16 -23 -11 -8 -27 -20 -34 -27 -8 -7 -18 -11 -24 -7
-6 4 -7 -1 -3 -12 3 -10 3 -15 -2 -11 -4 4 -20 -5 -34 -20 -15 -15 -35 -32
-46 -39 -11 -6 -19 -16 -17 -23 1 -6 -2 -9 -8 -5 -5 3 -13 -1 -16 -9 -3 -9
-10 -13 -15 -10 -5 3 -9 -2 -9 -10 0 -9 -3 -15 -7 -15 -19 3 -34 -2 -29 -9 3
-4 -11 -16 -30 -27 -19 -10 -34 -24 -34 -31 0 -8 -11 -16 -25 -20 -14 -3 -22
-10 -19 -15 5 -8 -10 -13 -29 -10 -5 1 -6 -3 -3 -8 8 -12 -34 -42 -47 -34 -6
4 -8 0 -5 -8 6 -15 -16 -42 -26 -32 -3 4 -6 1 -6 -5 0 -7 -3 -11 -7 -10 -5 1
-23 -12 -42 -29 -19 -18 -38 -30 -43 -27 -5 3 -7 2 -6 -3 2 -4 -15 -26 -37
-48 -21 -22 -35 -33 -31 -25 4 9 2 8 -7 -2 -8 -10 -18 -14 -22 -10 -5 4 -5 1
-1 -6 4 -7 1 -15 -8 -18 -9 -3 -14 -10 -11 -14 3 -5 -4 -11 -15 -15 -11 -4
-18 -11 -15 -16 4 -5 0 -9 -8 -9 -8 0 -14 -8 -13 -17 0 -10 -4 -17 -11 -16 -7
2 -10 -6 -8 -17 2 -11 -1 -20 -7 -20 -5 0 -8 -7 -4 -15 3 -8 1 -15 -5 -15 -6
0 -8 -4 -5 -9 3 -5 -1 -14 -9 -21 -10 -9 -12 -17 -5 -30 5 -9 7 -19 5 -22 -11
-11 -14 -102 -3 -115 9 -11 7 -12 -8 -7 -16 6 -17 5 -6 -7 15 -16 16 -33 0
-23 -7 5 -8 3 -3 -7 5 -7 8 -26 7 -41 -1 -17 3 -28 10 -28 9 0 9 -3 2 -8 -14
-10 -27 -45 -13 -37 13 9 8 -27 -6 -37 -6 -5 -4 -8 5 -8 13 0 13 -1 0 -10 -12
-8 -12 -10 3 -16 17 -6 17 -7 0 -20 -11 -8 -13 -13 -5 -14 6 0 12 -5 12 -11 0
-5 -5 -7 -12 -3 -7 5 -8 3 -3 -5 10 -17 12 -91 2 -91 -5 0 -5 -5 -2 -10 4 -6
12 -7 18 -3 7 3 3 -3 -7 -15 -11 -12 -14 -22 -8 -22 7 0 12 -5 12 -11 0 -5 -5
-7 -12 -3 -7 4 -8 3 -4 -5 12 -20 14 -105 2 -113 -8 -5 -7 -8 2 -8 6 0 12 -7
12 -15 0 -8 -6 -15 -12 -15 -9 0 -8 -4 2 -10 12 -8 12 -10 1 -10 -11 0 -10 -5
4 -20 15 -17 16 -20 3 -15 -9 4 -19 1 -24 -6 -4 -7 -3 -10 3 -6 13 8 22 -43
13 -69 -4 -11 -2 -27 4 -37 8 -14 8 -20 -4 -27 -13 -8 -13 -10 -1 -10 11 0 9
-4 -5 -14 -18 -14 -18 -15 -1 -21 9 -4 17 -11 17 -17 0 -5 -5 -6 -11 -2 -8 5
-8 1 0 -14 14 -27 14 -35 -1 -26 -9 5 -9 2 1 -9 11 -14 11 -17 0 -17 -10 0
-10 -3 -2 -11 8 -8 8 -20 3 -35 -6 -14 -6 -26 0 -29 6 -4 10 -11 10 -16 0 -6
-5 -7 -11 -3 -8 5 -8 1 0 -14 14 -27 14 -35 -1 -26 -9 5 -9 2 1 -9 10 -13 10
-17 1 -17 -9 0 -9 -4 -2 -12 5 -7 6 -22 2 -33 -4 -11 -2 -28 4 -38 8 -14 8
-20 -4 -27 -13 -9 -13 -10 0 -10 13 0 13 -1 0 -10 -12 -8 -12 -10 5 -11 l20 0
-20 -9 c-11 -5 -14 -9 -7 -9 6 -1 12 -6 12 -12 0 -5 -5 -7 -11 -3 -8 5 -9 2
-1 -12 6 -11 7 -27 1 -42 -5 -14 -5 -21 0 -17 5 3 12 1 15 -4 3 -5 -2 -12 -11
-15 -12 -5 -13 -10 -5 -18 6 -6 8 -17 5 -24 -3 -8 0 -14 6 -14 9 0 9 -5 0 -21
-6 -12 -7 -19 -1 -15 5 3 13 -1 16 -10 3 -8 2 -12 -4 -9 -15 9 -12 -2 6 -19 9
-10 11 -16 4 -16 -7 0 -5 -7 4 -16 9 -8 13 -20 10 -26 -4 -7 -2 -8 4 -4 7 4
12 1 12 -9 0 -9 5 -13 10 -10 6 3 10 2 10 -4 0 -5 -6 -12 -12 -14 -8 -3 -6 -6
5 -6 9 -1 17 -5 17 -11 0 -5 7 -10 15 -10 8 0 15 -6 15 -14 0 -8 9 -18 20 -21
11 -4 18 -11 14 -16 -3 -5 -2 -9 3 -8 4 1 17 1 28 0 17 -1 18 -3 5 -11 -12 -8
-10 -10 9 -10 21 0 22 -2 10 -17 -12 -16 -12 -17 1 -7 17 13 50 15 50 3 0 -4
13 -6 29 -5 17 1 28 -1 25 -5 -2 -4 5 -9 16 -12 11 -3 18 -1 14 4 -9 15 8 10
29 -9 11 -9 17 -12 14 -5 -12 20 10 24 29 6 17 -17 18 -17 11 1 -5 14 -3 17 8
13 8 -4 17 -2 20 4 4 5 10 7 15 4 5 -3 11 -1 15 5 4 6 10 8 15 5 4 -3 21 2 36
10 16 8 25 15 19 16 -9 0 12 11 40 20 6 2 18 12 28 23 17 21 17 21 11 1 -5
-20 -5 -20 7 -1 12 20 49 57 88 89 12 10 27 15 33 11 7 -4 8 -3 4 4 -4 7 -2
12 4 12 6 0 9 4 6 9 -3 5 6 12 20 15 18 5 24 11 20 23 -5 13 -4 14 9 3 9 -7
18 -10 22 -6 3 3 1 6 -7 6 -10 0 -10 3 0 15 7 8 16 12 21 9 5 -3 9 2 9 10 0
10 6 13 17 9 10 -3 15 -3 11 2 -4 4 -3 14 3 22 9 10 15 11 26 2 11 -10 12 -9
7 5 -4 11 -1 16 12 16 15 0 16 2 5 9 -11 7 -9 10 7 15 11 4 23 14 26 22 3 8
10 13 15 10 4 -3 19 8 31 24 12 16 27 27 31 24 5 -3 14 7 21 21 8 18 14 22 20
13 6 -11 8 -10 8 0 0 7 4 10 10 7 6 -3 7 1 4 9 -6 15 6 21 29 17 5 -1 5 4 1
10 -5 9 -2 10 10 6 11 -5 15 -3 10 5 -5 8 -2 9 11 4 15 -5 16 -4 6 8 -11 13
-8 16 13 22 14 3 23 10 20 15 -6 11 8 12 22 1 5 -4 6 -3 2 3 -13 15 -9 28 7
22 8 -4 17 -1 21 5 5 7 2 8 -6 3 -9 -6 -11 -4 -6 4 5 7 14 10 22 7 8 -3 11 0
8 8 -3 8 0 17 7 22 8 5 10 3 5 -7 -4 -8 -1 -6 8 5 8 10 19 15 25 11 7 -3 8 0
5 9 -4 11 0 16 11 16 9 0 13 5 10 10 -3 5 3 10 14 10 15 0 19 4 14 18 -6 15
-5 15 10 3 15 -12 17 -12 11 4 -5 13 -4 16 4 11 7 -4 12 -2 12 3 0 6 5 10 12
8 7 -1 12 5 13 13 0 8 14 22 31 30 17 9 29 21 27 27 -3 8 5 10 24 7 19 -3 23
-1 14 5 -10 7 -9 11 8 23 11 8 18 19 13 24 -4 4 1 2 11 -6 10 -7 17 -9 16 -4
-4 21 2 35 11 29 6 -3 10 -1 10 4 0 6 7 11 16 11 8 0 13 4 9 9 -3 6 5 15 17
22 13 6 34 24 48 38 14 15 31 26 37 24 6 -2 15 1 19 8 5 8 3 10 -7 4 -8 -5
-11 -4 -6 1 5 5 12 9 15 9 4 0 13 4 21 9 10 7 12 5 7 -5 -4 -8 0 -5 8 5 14 17
16 18 16 3 0 -9 7 -17 16 -17 8 0 12 -4 9 -10 -3 -5 -2 -10 2 -10 5 0 10 -11
11 -26 1 -16 -2 -23 -9 -18 -6 3 -3 -6 7 -22 11 -15 13 -25 7 -21 -7 5 -13 4
-13 -2 0 -6 6 -11 13 -11 8 0 7 -4 -3 -10 -13 -9 -13 -10 0 -10 13 0 13 -1 0
-10 -13 -9 -13 -10 0 -10 13 0 13 -1 0 -10 -13 -9 -13 -10 0 -10 9 0 11 -3 5
-8 -17 -12 -16 -32 2 -32 15 0 15 -1 -2 -13 -14 -11 -15 -16 -5 -22 10 -6 9
-9 -1 -16 -9 -6 -10 -9 -2 -9 8 0 9 -9 4 -27 -9 -34 -4 -55 12 -47 7 3 4 -1
-5 -8 -11 -10 -14 -19 -7 -29 13 -21 11 -29 -8 -29 -17 -1 -17 -1 0 -11 18
-10 18 -12 1 -31 -12 -13 -14 -18 -5 -16 8 2 14 -6 16 -20 1 -12 -3 -22 -9
-22 -6 0 -4 -5 4 -10 8 -5 10 -10 4 -10 -7 0 -8 -17 -4 -50 4 -29 2 -50 -3
-50 -5 0 -4 -7 3 -15 10 -12 9 -15 -6 -16 -18 0 -18 -1 1 -9 13 -6 15 -9 5 -9
-13 -1 -13 -2 0 -11 13 -9 13 -10 0 -10 -9 0 -11 -3 -5 -8 14 -10 17 -32 5
-32 -7 0 -7 -6 -1 -18 6 -11 6 -24 0 -34 -7 -12 -5 -20 8 -27 17 -10 17 -10 1
-11 -15 0 -16 -4 -8 -25 6 -17 6 -25 -1 -25 -6 0 -7 -5 -4 -10 4 -6 12 -8 18
-4 7 3 1 -4 -13 -16 -14 -12 -20 -19 -14 -16 7 3 14 -3 17 -14 3 -11 0 -20 -6
-20 -7 0 -5 -5 3 -10 9 -6 11 -10 3 -10 -7 0 -10 -7 -7 -15 10 -26 9 -165 -1
-166 -5 0 -1 -4 10 -9 11 -5 14 -9 8 -9 -16 -1 -17 -31 -1 -31 6 0 3 -6 -7
-14 -18 -13 -18 -14 0 -23 12 -7 16 -18 13 -31 -4 -13 -1 -20 6 -19 6 1 10 -6
8 -15 -2 -12 4 -18 15 -18 14 0 15 -2 5 -9 -11 -7 -11 -11 2 -23 8 -9 12 -19
8 -23 -4 -4 0 -5 8 -3 8 1 14 -3 12 -10 -1 -6 5 -12 13 -12 10 0 15 -7 13 -18
-2 -11 3 -16 15 -14 10 2 17 -3 17 -13 0 -9 5 -13 10 -10 6 3 13 -1 16 -9 3
-9 10 -14 14 -11 5 3 11 1 15 -5 4 -6 11 -8 16 -5 5 4 9 2 9 -2 0 -5 9 -14 21
-21 15 -10 19 -10 14 -1 -6 8 -4 10 6 3 14 -8 27 -12 64 -17 12 -2 26 -6 32
-10 6 -4 14 -1 16 5 4 10 6 10 6 0 1 -8 9 -10 27 -6 18 5 25 3 20 -4 -6 -10
-1 -10 39 -2 6 1 12 1 15 0 3 -1 19 -2 37 -3 26 -2 29 0 20 12 -9 10 -2 9 22
-3 18 -10 30 -13 27 -7 -4 6 -2 11 3 11 6 0 11 -4 11 -8 0 -5 7 -9 15 -9 8 0
12 4 9 9 -7 11 3 10 28 -3 15 -8 19 -8 14 0 -4 6 -3 11 3 11 5 0 11 -6 14 -12
3 -10 7 -10 18 -1 19 15 62 11 86 -8 16 -12 17 -12 6 2 -11 13 -9 16 16 16 22
0 28 -4 24 -16 -4 -11 0 -10 11 4 10 11 14 13 10 5 -6 -12 -4 -13 7 -2 16 15
33 16 23 0 -4 -6 -3 -8 4 -4 5 3 12 3 15 -1 2 -5 2 -2 1 5 -2 6 1 12 6 12 6 0
10 -4 10 -8 0 -5 7 -9 15 -9 8 0 12 5 8 10 -8 13 40 -3 49 -17 6 -8 8 -8 8 0
0 16 34 23 55 11 13 -7 16 -6 11 2 -4 6 -2 11 3 11 6 0 11 -5 11 -11 0 -6 5
-7 13 -2 16 10 68 13 62 3 -10 -16 13 -20 25 -5 11 13 73 17 64 4 -2 -3 3 -6
11 -6 8 0 12 4 9 9 -7 11 3 10 28 -3 15 -8 19 -8 14 0 -4 6 -3 11 3 11 5 0 11
-6 14 -12 4 -10 7 -10 18 0 15 14 33 16 25 3 -3 -4 11 -5 32 -2 20 4 54 4 74
1 22 -4 35 -3 32 2 -4 6 8 7 25 5 20 -3 31 -1 31 6 0 7 5 6 10 -3 5 -8 10 -10
10 -4 0 14 31 14 48 1 9 -7 11 -6 6 6 -4 12 0 15 21 12 16 -1 29 3 32 11 3 8
10 14 17 13 6 -1 18 -1 26 0 13 1 13 2 0 12 -12 9 -11 10 7 6 16 -4 20 -1 16
11 -5 10 -2 13 6 8 12 -8 71 47 71 66 0 5 5 6 10 3 9 -6 15 8 11 29 -1 5 4 6
12 3 7 -3 14 1 14 9 0 7 -5 10 -11 7 -6 -4 1 6 16 21 16 16 24 34 21 43 -3 8
0 19 8 24 12 7 12 9 0 9 -9 0 -10 4 -4 13 5 6 9 38 8 69 0 32 4 58 10 58 6 0
4 4 -4 9 -9 6 -10 11 -2 15 6 4 8 12 5 18 -10 16 -10 99 -1 105 5 3 3 9 -4 14
-12 8 -11 11 1 19 12 8 12 10 1 10 -11 0 -11 3 -1 15 8 9 9 15 2 15 -11 0 -9
31 2 49 4 5 0 11 -6 14 -9 3 -7 10 7 21 l20 16 -20 -7 c-18 -6 -18 -5 -6 10 7
9 10 17 5 17 -10 0 -9 113 0 129 3 5 0 12 -6 14 -10 4 -9 8 2 16 11 8 12 11 2
11 -7 0 -10 5 -7 10 4 6 12 8 18 4 7 -3 5 0 -3 8 -19 17 -19 106 1 119 11 7
11 9 -2 9 -13 0 -16 10 -14 49 2 28 6 55 10 60 3 6 0 11 -7 11 -9 0 -9 3 2 10
8 5 11 10 5 10 -5 0 -10 13 -11 30 -1 16 3 27 8 23 6 -3 5 4 -1 15 -15 28 -14
32 7 26 10 -4 13 -3 6 3 -15 11 -23 73 -10 73 6 0 5 4 -3 9 -11 7 -11 9 0 14
11 4 11 6 0 6 -11 1 -10 5 5 16 10 8 15 15 9 14 -24 -3 -27 2 -9 17 10 8 13
13 7 9 -18 -9 -17 35 2 62 8 12 23 20 32 18 10 -2 24 -4 30 -4 7 -1 12 -6 10
-12 -1 -6 4 -14 12 -17 9 -3 11 0 7 9 -4 8 1 4 10 -9 9 -12 23 -22 31 -22 8 0
11 -4 8 -10 -3 -5 3 -10 15 -10 12 0 18 -4 15 -10 -3 -5 -1 -10 4 -10 6 0 11
-7 11 -15 0 -8 5 -15 11 -15 5 0 7 6 3 13 -3 6 5 0 18 -15 14 -16 29 -28 33
-28 4 0 15 -8 24 -18 9 -11 26 -24 39 -31 12 -7 20 -16 17 -22 -4 -5 1 -9 9
-9 9 0 16 -4 16 -10 0 -5 7 -10 16 -10 8 0 12 -4 9 -10 -6 -9 8 -14 28 -11 5
1 6 -2 4 -6 -6 -10 19 -34 27 -26 3 4 6 -1 6 -11 0 -9 5 -14 10 -11 9 5 14 -7
12 -26 -1 -4 8 -5 19 -2 18 5 20 3 14 -18 -4 -17 -3 -20 3 -10 8 11 14 10 33
-8 12 -11 27 -21 31 -21 5 0 6 -4 3 -10 -3 -5 -2 -10 4 -10 6 0 22 -12 37 -28
15 -15 21 -18 14 -7 -8 11 3 3 24 -17 22 -21 47 -40 58 -44 15 -4 17 -9 7 -20
-10 -12 -9 -13 5 -8 9 3 16 1 16 -5 0 -6 5 -11 11 -11 15 0 39 -26 31 -35 -4
-4 -2 -6 3 -5 25 5 37 -1 31 -16 -3 -8 -2 -12 4 -9 6 3 10 1 10 -4 0 -6 6 -10
13 -8 6 1 11 -4 9 -11 -1 -8 2 -11 7 -8 5 4 14 -2 20 -11 5 -10 13 -18 18 -18
4 0 7 -4 5 -8 -1 -5 2 -6 7 -3 5 4 16 -1 24 -9 9 -8 20 -15 26 -15 6 0 11 -9
11 -20 0 -11 3 -19 8 -19 19 3 45 -2 39 -7 -6 -7 16 -34 28 -34 12 0 34 -27
28 -34 -4 -3 4 -6 16 -6 12 0 19 -4 16 -10 -6 -10 9 -15 30 -10 5 1 7 -1 3 -5
-9 -9 16 -35 32 -35 7 0 9 -7 6 -16 -3 -8 -2 -13 3 -10 8 6 59 -28 73 -49 5
-6 8 -6 8 0 0 6 5 3 10 -5 5 -8 14 -15 20 -15 6 0 15 -7 20 -15 5 -8 10 -12
10 -7 0 4 13 1 29 -7 16 -9 32 -12 36 -8 3 4 13 -2 21 -12 10 -14 14 -16 14
-5 0 12 2 12 10 -1 7 -11 10 -11 10 -2 0 8 5 10 12 6 19 -12 48 -12 48 0 0 6
5 4 10 -4 9 -13 11 -13 20 0 8 13 10 13 10 1 0 -11 4 -10 16 5 8 10 13 14 9 7
-8 -16 36 -8 47 9 4 7 8 9 8 4 0 -4 11 -1 24 7 18 12 26 13 35 4 7 -7 12 -7
11 -2 -6 27 1 36 23 30 17 -5 19 -4 7 4 -13 9 -13 11 3 11 9 0 16 4 15 8 -2 5
13 24 33 43 36 33 39 38 39 60 0 5 5 7 12 3 6 -4 8 -3 5 3 -3 5 0 22 8 37 10
18 10 24 2 19 -8 -4 -7 -1 1 10 8 9 11 21 8 26 -4 5 2 14 11 20 12 7 13 10 4
11 -11 0 -11 3 0 17 12 15 12 16 -1 8 -13 -8 -13 -7 -1 8 7 9 10 17 5 17 -11
0 -10 52 1 70 6 9 4 11 -6 6 -8 -4 -5 0 5 8 18 15 19 16 2 16 -12 0 -16 5 -12
16 3 9 6 18 6 20 0 3 4 2 10 -1 6 -3 7 1 4 9 -3 9 -10 16 -15 16 -5 0 -4 11 1
25 5 14 6 25 1 25 -4 0 -8 7 -8 15 0 9 6 14 14 11 17 -7 17 -1 -2 18 -8 8 -12
22 -9 31 5 13 9 13 22 3 14 -12 14 -11 1 10 -8 12 -17 22 -21 22 -4 0 -3 11 2
25 5 14 6 25 1 25 -14 0 -6 30 10 41 11 7 10 9 -5 9 -12 0 -16 5 -12 16 3 9 6
18 6 20 0 3 4 2 10 -1 6 -3 7 1 4 9 -3 9 -10 16 -15 16 -5 0 -4 11 1 25 5 14
6 25 1 25 -4 0 -8 7 -8 15 0 9 6 14 13 11 8 -3 16 0 20 7 4 7 4 9 -1 5 -12
-11 -36 19 -29 36 3 9 10 13 15 10 5 -3 6 2 3 10 -3 9 -10 16 -15 16 -5 0 -4
11 1 25 7 17 6 25 -1 25 -7 0 -6 6 2 17 12 15 12 16 -1 8 -9 -5 -7 0 4 14 19
21 19 22 1 15 -15 -6 -17 -4 -12 10 4 10 7 20 7 22 0 3 4 2 10 -1 6 -3 7 1 4
9 -3 9 -10 16 -15 16 -5 0 -4 11 1 25 5 14 6 25 1 25 -4 0 -8 7 -8 15 0 9 6
14 13 11 8 -3 11 0 7 10 -3 7 -9 14 -15 14 -11 0 1 42 15 51 5 4 2 9 -8 10
-18 4 -18 5 -1 22 15 15 16 17 1 17 -13 0 -14 4 -5 20 8 15 8 20 -1 20 -8 0
-8 4 1 15 10 12 10 15 0 15 -9 0 -10 3 -1 13 6 8 8 17 4 21 -10 10 -12 56 -2
50 4 -2 11 1 15 7 4 7 3 9 -4 5 -6 -3 -13 -2 -16 3 -4 5 -2 12 3 15 6 4 6 18
1 37 -6 20 -6 39 1 50 7 13 6 19 -1 19 -8 0 -8 6 0 20 8 15 8 20 -1 20 -8 0
-8 4 1 15 10 12 10 15 0 15 -10 0 -10 4 1 16 10 13 10 17 -2 25 -12 7 -12 10
0 18 7 5 9 11 4 14 -5 3 -10 25 -12 49 -1 23 -7 45 -13 49 -7 4 -6 8 3 12 10
4 10 6 2 6 -7 1 -13 7 -13 15 0 8 -6 17 -12 19 -10 4 -9 6 1 6 10 1 7 7 -7 20
-12 10 -19 21 -15 25 3 3 1 6 -5 6 -7 0 -12 7 -12 16 0 8 -4 13 -9 10 -5 -3
-17 7 -27 22 -21 33 -61 72 -74 72 -5 0 -14 9 -20 20 -6 11 -15 20 -20 20 -6
0 -23 14 -38 30 -16 17 -34 30 -41 30 -6 0 -11 5 -11 10 0 6 -11 15 -25 22
-13 6 -22 15 -19 19 3 5 1 9 -4 9 -4 0 -27 16 -49 35 -22 19 -43 31 -47 28 -3
-3 -6 1 -6 11 0 9 -3 15 -7 13 -10 -6 -34 19 -26 27 4 3 -4 6 -16 6 -12 0 -19
4 -16 10 3 6 -1 10 -9 10 -8 0 -18 5 -22 12 -5 7 -3 8 6 3 8 -5 11 -4 6 3 -4
6 -14 8 -24 5 -9 -3 -14 -3 -10 2 8 8 -15 35 -29 35 -5 0 -15 9 -23 20 -8 11
-18 20 -22 20 -4 0 -16 8 -27 18 -47 44 -92 82 -98 82 -3 0 -16 11 -29 26 -13
14 -24 22 -24 19 0 -3 -12 6 -27 22 -16 15 -27 31 -25 36 1 5 -2 6 -8 2 -12
-8 -42 20 -32 30 4 4 2 6 -3 5 -22 -5 -35 1 -35 15 0 8 -3 14 -7 14 -28 -5
-35 1 -22 18 10 11 10 14 2 9 -8 -4 -13 -2 -13 4 0 7 -6 10 -13 7 -8 -3 -22 6
-33 20 -10 14 -29 29 -42 34 -17 6 -22 14 -18 26 5 13 4 14 -9 3 -13 -11 -14
-10 -9 4 5 12 2 15 -12 9 -12 -4 -15 -3 -10 5 4 7 1 12 -9 12 -11 0 -15 5 -12
14 4 10 0 12 -15 8 -14 -3 -19 -1 -14 6 4 7 1 12 -8 12 -9 0 -16 8 -16 17 0 9
-3 14 -6 10 -3 -3 -18 5 -32 19 -15 13 -30 24 -34 24 -5 0 -8 5 -8 11 0 6 -7
17 -16 26 -8 9 -14 25 -12 37 1 11 -1 27 -5 33 -5 9 -3 11 6 7 8 -3 18 0 23 7
5 8 3 10 -7 4 -12 -8 -12 -6 0 8 7 9 19 17 27 17 7 0 16 5 20 12 5 7 3 8 -7 3
-12 -8 -12 -6 0 8 8 10 16 15 18 13 7 -7 32 18 26 27 -2 4 3 7 12 7 8 0 18 7
21 15 4 8 11 15 16 15 6 0 21 11 33 24 13 14 26 22 29 18 4 -3 9 3 12 15 3 12
13 24 21 27 9 4 12 2 7 -7 -4 -6 4 -1 18 13 13 14 22 30 19 35 -2 6 6 1 20
-10 13 -11 18 -13 12 -5 -9 12 -7 20 7 37 9 12 20 19 24 16 3 -4 6 -1 6 6 0 7
5 9 10 6 6 -4 9 -1 8 7 -2 7 3 12 10 11 6 -2 12 2 12 8 0 5 6 7 13 3 7 -5 6 0
-3 11 -15 19 -15 19 15 1 18 -12 25 -14 18 -5 -9 11 -8 18 1 31 7 10 16 15 19
11 4 -3 7 -1 7 6 0 7 5 9 10 6 6 -3 10 0 10 8 0 8 8 21 17 28 14 12 16 12 9
-1 -4 -8 9 3 29 25 20 22 34 34 30 28 -4 -9 -1 -11 9 -7 9 3 14 10 11 15 -7
10 30 31 40 21 3 -4 5 0 3 8 -2 8 3 14 9 13 7 -2 12 2 10 8 -1 6 4 14 12 17 9
3 11 0 6 -8 -5 -9 -4 -11 4 -6 9 6 9 11 -1 24 -11 13 -11 14 0 8 9 -5 21 0 33
13 11 12 24 21 30 21 6 0 8 4 5 9 -3 5 6 12 19 15 14 4 23 10 21 15 -3 5 4 17
17 27 21 19 21 19 8 -1 -8 -11 2 -3 21 18 19 21 44 39 55 40 13 0 19 6 16 14
-3 7 2 13 12 13 9 0 14 4 10 9 -3 5 4 12 15 16 11 4 17 11 14 17 -5 7 1 9 15
5 13 -3 21 -3 18 0 -8 7 26 43 41 43 7 0 10 5 7 10 -3 6 1 10 10 10 9 0 13 5
10 10 -3 6 1 10 9 10 8 0 19 7 24 16 5 9 12 15 15 15 4 -1 8 2 9 7 3 12 23 30
29 26 3 -2 15 4 25 12 10 9 12 12 4 8 -8 -5 5 12 30 37 25 25 48 43 53 41 4
-2 6 2 5 10 -2 7 2 12 9 11 7 -2 10 4 7 12 -4 8 1 17 9 21 9 3 18 13 21 21 5
12 3 13 -7 7 -7 -5 -5 -2 5 7 9 9 14 19 11 23 -4 3 -2 6 3 6 6 0 10 18 9 40
-1 22 2 40 6 40 4 0 9 9 12 20 3 11 1 20 -4 20 -5 0 -9 5 -9 11 0 5 4 8 8 5 5
-3 9 1 9 9 0 8 -5 12 -10 8 -5 -3 -4 4 2 15 6 12 7 23 2 26 -10 7 -8 87 3 104
4 7 3 12 -2 12 -5 0 -9 7 -9 15 0 9 6 14 13 11 8 -3 16 0 20 7 4 7 4 9 -1 5
-12 -11 -36 19 -29 36 3 9 10 13 15 10 5 -3 6 2 3 10 -3 9 -10 16 -15 16 -6 0
-5 10 2 21 8 16 8 20 -1 14 -9 -6 -9 -3 -1 12 7 14 7 23 -1 31 -6 6 -7 16 -2
24 13 20 14 38 2 38 -7 0 -7 5 1 13 8 10 7 17 -2 27 -9 9 -9 11 0 6 8 -4 11 1
10 14 -1 11 -5 20 -10 20 -5 0 -5 6 2 13 8 10 7 17 -2 27 -9 10 -9 11 1 6 6
-4 12 -2 12 3 0 6 -5 11 -11 11 -8 0 -8 4 0 13 7 10 7 17 0 24 -8 8 -8 17 0
32 7 12 8 21 3 21 -5 0 -9 7 -9 15 0 9 6 14 14 11 17 -7 17 -1 -2 18 -15 15
-10 50 6 40 5 -3 6 2 3 10 -3 9 -10 16 -15 16 -6 0 -5 10 2 21 8 16 8 20 -1
14 -9 -6 -9 -3 -1 12 7 14 7 23 -1 31 -8 8 -8 15 2 27 8 10 9 15 1 15 -6 0
-11 5 -11 11 0 5 4 8 8 5 11 -6 9 25 -3 43 -5 10 -4 12 3 7 7 -4 12 -2 12 3 0
6 -4 11 -10 11 -5 0 -10 5 -10 11 0 5 4 8 8 5 10 -6 9 30 -1 40 -10 11 -8 24
4 24 5 0 7 -5 3 -12 -4 -7 -3 -8 4 -4 15 9 15 12 -4 30 -9 9 -12 21 -8 28 12
19 12 48 1 48 -6 0 -6 5 -1 13 11 15 11 38 1 54 -4 7 -3 22 3 33 8 15 8 20 -1
20 -8 0 -8 4 1 15 10 12 10 15 0 15 -10 0 -10 3 -1 14 8 10 9 16 1 21 -5 3
-10 12 -10 18 0 9 2 9 8 0 4 -7 8 10 7 37 0 28 -3 50 -7 50 -5 0 -8 5 -8 11 0
5 6 7 13 3 9 -6 9 -4 1 7 -11 14 -13 20 -17 76 -1 17 -5 29 -9 26 -5 -2 -8 5
-8 17 0 14 -4 19 -12 14 -7 -5 -9 -2 -5 8 3 10 -4 24 -19 37 -14 12 -22 26
-19 31 3 6 1 10 -4 10 -6 0 -27 16 -48 35 -20 19 -40 32 -45 29 -4 -3 -8 -1
-8 4 0 15 -75 42 -117 44 -13 0 -23 4 -23 9 0 5 -7 6 -15 3 -8 -3 -38 -7 -67
-9 -29 -1 -53 -4 -53 -5 0 -1 -11 -3 -24 -6 -14 -2 -30 -9 -36 -14 -7 -5 -16
-6 -20 -2 -5 4 -4 1 0 -7 6 -11 4 -13 -8 -8 -9 3 -18 0 -21 -9 -3 -8 -12 -14
-21 -14 -8 0 -15 -4 -15 -10 0 -5 -7 -10 -16 -10 -8 0 -13 -4 -10 -9 3 -5 -8
-14 -25 -20 -17 -6 -28 -15 -24 -20 3 -6 -6 -13 -20 -17 -13 -3 -23 -10 -20
-14 3 -5 -4 -11 -15 -15 -11 -3 -20 -13 -20 -21 0 -8 -5 -12 -10 -9 -6 3 -13
-1 -16 -9 -3 -9 -10 -14 -14 -11 -4 3 -10 -2 -14 -10 -3 -8 -13 -15 -21 -15
-9 0 -14 -4 -11 -8 3 -5 -6 -15 -19 -22 -14 -7 -25 -17 -25 -22 0 -5 -4 -7 -9
-3 -5 3 -13 -4 -16 -16 -4 -11 -9 -18 -12 -16 -4 5 -26 -11 -81 -60 -14 -13
-31 -23 -38 -23 -8 0 -11 -6 -7 -17 5 -13 2 -15 -11 -10 -10 4 -15 3 -11 -3 3
-5 -4 -14 -16 -21 -12 -6 -33 -23 -46 -37 -12 -14 -23 -22 -23 -19 0 5 -44
-30 -81 -65 -11 -10 -24 -18 -30 -18 -5 0 -7 -4 -4 -10 3 -5 -4 -10 -15 -10
-15 0 -20 -5 -17 -14 5 -13 -25 -30 -46 -27 -5 1 -6 -3 -3 -7 3 -5 -6 -18 -21
-28 -14 -11 -38 -30 -53 -44 -56 -50 -82 -70 -91 -70 -6 0 -7 -4 -4 -10 3 -5
-1 -10 -10 -10 -10 0 -26 -11 -37 -25 -11 -14 -24 -23 -29 -19 -5 3 -8 0 -7
-8 2 -7 -5 -12 -14 -12 -10 1 -17 -1 -16 -5 2 -21 -4 -30 -19 -24 -9 4 -14 2
-11 -3 3 -5 0 -15 -8 -22 -8 -7 -14 -10 -14 -6 0 4 -11 -5 -24 -21 -16 -18
-28 -25 -37 -19 -12 7 -12 5 -1 -9 12 -14 11 -16 -6 -12 -12 2 -23 -3 -26 -11
-4 -11 -13 -13 -27 -9 -15 5 -19 4 -14 -5 6 -9 3 -9 -13 -1 -13 7 -19 17 -16
26 4 8 2 15 -4 15 -5 0 -12 12 -15 26 -3 20 -1 24 12 20 13 -5 12 -3 -2 8 -14
10 -15 15 -5 19 7 3 9 6 3 6 -11 1 -12 112 -1 130 4 6 3 11 -3 11 -10 0 -8 31
4 49 3 5 1 13 -5 16 -8 5 -8 11 0 20 8 10 8 15 0 20 -8 5 -8 11 -1 19 6 7 8
16 4 19 -8 8 -8 231 0 244 3 5 2 15 -3 23 -5 8 -5 21 1 31 6 12 5 19 -4 22 -9
4 -8 8 3 16 8 6 10 11 4 11 -13 0 -13 42 1 52 6 5 6 8 -1 8 -6 0 -11 7 -11 15
0 10 6 14 16 10 14 -4 14 -4 1 7 -11 10 -15 35 -15 96 -1 45 3 82 8 82 4 0 5
5 1 11 -11 18 -10 119 1 119 7 0 7 3 0 8 -9 6 -13 28 -16 100 -1 12 -6 25 -10
28 -5 3 -7 10 -4 15 4 5 0 12 -9 15 -8 3 -13 14 -11 25 2 12 -2 19 -11 19 -8
0 -12 5 -9 10 3 6 1 10 -5 10 -6 0 -9 4 -6 8 3 5 -4 14 -14 22 -10 8 -16 18
-13 23 3 6 1 7 -6 3 -6 -4 -14 0 -17 8 -3 9 -13 16 -21 16 -8 0 -11 5 -7 12 4
6 3 8 -4 4 -6 -3 -13 -2 -17 4 -4 6 -11 8 -16 5 -5 -4 -9 -1 -9 4 0 6 -7 11
-16 11 -9 0 -12 5 -8 11 4 7 1 10 -7 7 -8 -3 -31 1 -53 8 -21 8 -42 11 -47 8
-5 -3 -9 1 -9 8 0 9 -3 9 -10 -2 -5 -8 -10 -10 -10 -4 0 6 -18 9 -46 7 -35 -3
-44 -1 -38 9 6 10 5 10 -8 0 -13 -10 -17 -10 -21 0 -4 10 -6 10 -6 -1 -1 -11
-4 -11 -18 0 -11 10 -14 10 -9 2 4 -7 2 -13 -3 -13 -6 0 -11 6 -11 13 0 7 -3
8 -8 2 -9 -12 -32 -13 -51 -1 -8 5 -17 3 -22 -5 -8 -12 -11 -12 -19 1 -8 12
-10 12 -10 1 0 -10 -3 -11 -13 -3 -8 7 -18 7 -27 2 -20 -13 -33 -12 -25 0 8
13 -17 8 -28 -5 -6 -6 -10 -5 -14 3 -4 10 -8 10 -19 1 -11 -9 -14 -8 -14 2 0
11 -2 11 -9 0 -8 -12 -12 -12 -25 -2 -13 11 -16 11 -16 0 0 -10 -3 -10 -12 -1
-7 7 -17 8 -30 1 -13 -7 -18 -6 -18 3 0 8 -3 9 -8 3 -6 -9 -25 -11 -44 -5 -20
6 -34 6 -50 -2 -12 -6 -18 -5 -18 4 0 8 -3 9 -8 3 -9 -12 -32 -13 -51 -1 -8 5
-17 3 -22 -5 -8 -12 -11 -12 -19 1 -8 12 -10 12 -10 1 0 -10 -3 -11 -14 -2
-10 8 -16 9 -21 1 -3 -6 -12 -7 -18 -3 -16 10 -37 10 -63 1 -12 -4 -27 -1 -34
5 -10 9 -11 9 -6 0 9 -16 -10 -17 -19 -3 -5 8 -11 8 -20 0 -8 -6 -16 -7 -19
-2 -5 9 -65 7 -74 -3 -3 -3 -12 1 -20 8 -13 9 -14 9 -8 0 9 -16 -6 -17 -21 -2
-7 7 -13 7 -17 1z m1152 -46 c28 -4 52 -11 52 -15 0 -4 18 -14 40 -21 58 -19
144 -108 155 -161 4 -16 10 -29 15 -29 10 0 11 -6 14 -272 1 -126 0 -228 -4
-228 -3 0 -6 99 -5 220 1 121 -2 220 -6 220 -5 0 -9 11 -9 24 0 34 -20 86 -44
114 -65 77 -104 103 -191 130 -35 11 -1325 12 -1325 2 0 -14 -37 -13 -46 1 -4
6 1 10 12 8 11 -1 26 1 34 4 8 3 31 8 50 9 79 7 1209 1 1258 -6z m-1383 -41
c-16 -7 -47 -29 -67 -48 -21 -19 -38 -31 -38 -27 0 5 12 18 26 29 15 12 23 21
18 22 -12 1 68 39 81 38 6 0 -3 -7 -20 -14z m-119 -107 c-8 -4 -17 -19 -20
-33 -6 -24 -26 -36 -26 -15 0 6 4 10 8 10 4 0 14 16 21 36 10 27 16 33 22 23
5 -9 3 -17 -5 -21z m-44 -91 c-6 -7 -10 -298 -10 -707 0 -382 -1 -698 -1 -702
-2 -16 -33 -7 -55 15 -13 12 -31 27 -41 33 -10 5 -25 21 -33 35 l-15 24 24
-22 c13 -12 39 -36 57 -53 18 -16 37 -30 42 -30 6 0 10 254 10 693 0 380 3
702 6 714 4 13 10 20 16 17 5 -4 5 -10 0 -17z m1503 -502 c0 -223 -3 -405 -6
-405 -4 0 -7 182 -8 405 -1 223 2 405 6 405 5 0 8 -182 8 -405z m1865 267 c0
-4 17 -8 38 -10 48 -2 59 -5 105 -25 62 -27 166 -148 159 -184 -2 -7 1 -13 7
-13 5 0 8 -11 6 -25 -1 -14 2 -25 6 -25 14 0 11 -1527 -2 -1536 -6 -3 -9 -14
-6 -24 5 -18 -27 -92 -53 -124 -14 -17 -59 -61 -121 -121 -15 -14 -30 -25 -34
-25 -4 0 -18 -10 -30 -22 -57 -58 -73 -69 -81 -56 -4 7 -4 10 1 6 4 -4 18 6
30 22 12 16 24 28 27 25 5 -5 68 49 156 135 60 59 99 128 94 167 -2 13 1 23 5
23 5 0 8 333 7 763 -1 419 -2 762 -3 762 -2 0 -4 7 -6 15 -19 92 -41 128 -123
201 -27 23 -103 49 -146 49 -19 0 -39 7 -46 15 -9 10 -9 15 -1 15 6 0 11 -3
11 -8z m-23 -16 c4 -4 -10 -6 -32 -5 -39 1 -113 -20 -137 -40 -7 -6 -35 -29
-63 -51 -27 -22 -61 -52 -75 -65 -14 -14 -28 -25 -32 -25 -4 0 -18 -10 -31
-22 -37 -36 -67 -58 -67 -51 0 10 32 43 43 43 5 0 25 17 43 37 19 20 34 34 34
30 0 -3 16 9 35 28 19 19 39 35 44 35 5 0 18 10 28 23 35 44 184 89 210 63z
m-4772 -21 c30 -10 55 -22 55 -26 0 -5 6 -9 13 -9 8 0 33 -18 58 -40 40 -37
41 -39 12 -25 -17 9 -33 21 -36 29 -5 12 -87 56 -132 71 -30 10 -166 7 -204
-5 -19 -5 -38 -15 -42 -22 -6 -9 -11 -10 -19 -2 -8 8 2 14 32 24 24 7 46 16
50 19 15 12 160 2 213 -14z m-324 -55 c-13 -11 -20 -20 -16 -20 3 0 -7 -12
-24 -26 -17 -14 -29 -29 -26 -34 3 -4 -2 -10 -10 -14 -8 -3 -15 -13 -15 -23 0
-10 -6 -29 -13 -43 -10 -20 -13 -191 -12 -817 0 -435 3 -795 8 -799 11 -11 9
-24 -5 -24 -6 0 -8 3 -5 7 4 3 2 13 -5 20 -17 21 -19 1545 -2 1590 7 17 10 34
6 37 -3 3 -1 6 5 6 6 0 13 13 16 28 7 37 88 132 111 132 6 -1 0 -10 -13 -20z
m516 -67 c-4 -3 2 -12 13 -20 11 -8 20 -19 20 -24 0 -6 -7 -3 -16 5 -8 9 -20
16 -25 16 -5 0 -9 7 -9 15 0 8 5 15 12 15 6 0 8 -3 5 -7z m123 -113 c0 -4 9
-11 19 -16 18 -8 82 -62 175 -146 23 -21 44 -38 48 -38 4 0 23 -16 43 -35 19
-20 35 -33 35 -29 0 4 13 -7 29 -24 16 -16 33 -27 37 -24 4 4 4 1 0 -5 -4 -7
-2 -13 4 -13 7 0 24 -11 38 -24 71 -63 110 -96 115 -96 3 0 19 -13 35 -30 17
-16 29 -30 26 -30 -9 0 -63 37 -60 41 3 2 -12 16 -32 29 -20 14 -45 35 -55 48
-10 12 -23 22 -29 22 -5 0 -27 18 -48 40 -21 22 -42 40 -45 40 -4 0 -38 27
-75 60 -37 33 -72 60 -77 60 -5 0 -19 14 -31 30 -13 17 -27 30 -32 30 -5 0
-25 16 -45 35 -19 20 -35 32 -35 28 0 -4 -15 9 -32 28 -18 20 -41 38 -50 42
-9 3 -22 16 -28 28 -10 17 -4 15 29 -11 23 -18 41 -36 41 -40z m2938 -15 c0
-14 -4 -25 -8 -25 -6 0 -7 37 -1 48 4 9 9 -2 9 -23z m1060 -15 c-7 -11 -16
-20 -20 -20 -7 0 -84 -63 -129 -105 -14 -14 -30 -25 -35 -25 -6 0 -20 -13 -32
-30 -13 -16 -28 -30 -34 -30 -6 0 -17 -8 -24 -17 -7 -10 -14 -13 -14 -7 0 6
14 23 30 37 17 15 30 25 30 23 0 -4 64 53 111 99 15 14 30 25 34 25 4 0 25 16
46 35 44 40 55 44 37 15z m-1060 -45 c0 -14 -4 -25 -8 -25 -6 0 -7 37 -1 48 4
9 9 -2 9 -23z m2 -45 c0 -5 -5 -10 -11 -10 -5 0 -7 5 -4 10 3 6 8 10 11 10 2
0 4 -4 4 -10z m0 -30 c0 -5 -4 -10 -10 -10 -5 0 -10 5 -10 10 0 6 5 10 10 10
6 0 10 -4 10 -10z m0 -30 c0 -5 -5 -10 -11 -10 -5 0 -7 5 -4 10 3 6 8 10 11
10 2 0 4 -4 4 -10z m0 -30 c0 -5 -4 -10 -10 -10 -5 0 -10 5 -10 10 0 6 5 10
10 10 6 0 10 -4 10 -10z m-3 -140 c0 -65 -3 -117 -7 -115 -5 3 -6 221 -1 233
6 15 9 -17 8 -118z m742 54 c-12 -13 -26 -21 -31 -18 -11 7 33 52 45 46 5 -2
-1 -15 -14 -28z m-59 -49 c-12 -13 -27 -22 -32 -19 -6 4 3 15 19 25 38 25 41
24 13 -6z m-70 -54 c0 -5 -15 -20 -32 -32 -18 -13 -39 -31 -46 -41 -7 -10 -18
-18 -24 -18 -5 0 -22 -12 -38 -27 -40 -40 -60 -55 -60 -45 0 5 11 18 25 30 14
12 25 20 25 18 0 -5 81 66 110 96 26 28 40 35 40 19z m-936 -71 c1 -28 -2 -50
-6 -50 -5 0 -8 26 -8 57 0 31 3 53 7 49 4 -3 7 -29 7 -56z m324 -35 c0 -13 -4
-22 -9 -20 -9 6 -8 45 2 45 4 0 7 -11 7 -25z m-2232 -82 c27 -23 72 -60 99
-82 28 -23 61 -53 75 -66 14 -14 30 -25 35 -25 6 0 16 -9 23 -20 20 -33 4 -23
-72 43 -40 34 -94 80 -121 102 -27 22 -59 50 -70 63 -12 12 -27 22 -32 22 -14
0 -34 25 -27 33 3 3 14 -2 23 -11 10 -9 40 -36 67 -59z m1909 -173 c0 -121 -2
-220 -6 -220 -3 0 -6 102 -6 226 -1 124 2 223 5 219 3 -3 6 -105 7 -225z m323
195 c0 -13 -4 -22 -9 -20 -9 6 -8 45 2 45 4 0 7 -11 7 -25z m387 -25 c-10 -11
-25 -20 -34 -20 -10 0 -5 8 14 20 38 25 43 25 20 0z m-387 -35 c0 -13 -4 -22
-9 -20 -9 6 -8 45 2 45 4 0 7 -11 7 -25z m326 -17 c-45 -35 -76 -61 -98 -83
-11 -11 -32 -26 -45 -33 -20 -10 -18 -6 10 23 19 19 38 35 43 35 5 0 18 10 30
23 24 25 67 56 80 56 5 1 -4 -9 -20 -21z m-326 -43 c0 -13 -4 -22 -9 -20 -9 6
-8 45 2 45 4 0 7 -11 7 -25z m0 -72 c2 -21 -1 -34 -5 -29 -10 9 -13 66 -4 66
4 0 8 -17 9 -37z m-1888 13 c0 -2 -7 -7 -16 -10 -8 -3 -12 -2 -9 4 6 10 25 14
25 6z m2011 -66 c-21 -16 -46 -39 -55 -52 -9 -12 -16 -18 -16 -13 0 4 -11 -2
-24 -14 -14 -13 -29 -20 -35 -17 -12 8 -10 46 2 46 5 0 7 -7 4 -15 -14 -34 14
-20 79 39 38 35 73 62 77 59 4 -3 -10 -17 -32 -33z m-123 -15 c0 -13 -4 -22
-9 -20 -9 6 -8 45 2 45 4 0 7 -11 7 -25z m-323 -195 c1 -11 -2 -20 -7 -20 -4
0 -8 12 -8 27 0 30 13 24 15 -7z m0 -60 c1 -11 -2 -20 -7 -20 -4 0 -8 12 -8
27 0 30 13 24 15 -7z m0 -60 c1 -11 -2 -20 -7 -20 -4 0 -8 12 -8 27 0 30 13
24 15 -7z m-1 -85 c1 -25 -2 -45 -6 -45 -5 0 -8 23 -8 52 0 62 13 56 14 -7z
m3 -70 c0 -8 -4 -15 -9 -15 -4 0 -8 7 -8 15 0 8 4 15 8 15 5 0 9 -7 9 -15z m0
-40 c0 -8 -4 -15 -9 -15 -4 0 -8 7 -8 15 0 8 4 15 8 15 5 0 9 -7 9 -15z m0
-40 c0 -8 -4 -15 -9 -15 -4 0 -8 7 -8 15 0 8 4 15 8 15 5 0 9 -7 9 -15z m0
-40 c0 -8 -4 -15 -9 -15 -4 0 -8 7 -8 15 0 8 4 15 8 15 5 0 9 -7 9 -15z m0
-40 c0 -8 -4 -15 -9 -15 -4 0 -8 7 -8 15 0 8 4 15 8 15 5 0 9 -7 9 -15z m0
-40 c0 -8 -4 -15 -9 -15 -4 0 -8 7 -8 15 0 8 4 15 8 15 5 0 9 -7 9 -15z m0
-40 c0 -8 -4 -15 -9 -15 -4 0 -8 7 -8 15 0 8 4 15 8 15 5 0 9 -7 9 -15z m-1
-45 c0 -11 -4 -20 -8 -20 -4 0 -8 9 -8 20 0 11 4 20 8 20 4 0 8 -9 8 -20z
m-3340 -72 c3 -12 13 -28 20 -36 8 -7 11 -18 8 -23 -7 -13 -7 -13 -32 39 -11
23 -16 42 -12 42 5 0 12 -10 16 -22z m82 -104 c2 -1 0 -4 -5 -7 -4 -3 -17 7
-27 22 l-20 26 25 -20 c13 -11 25 -21 27 -21z m23 -31 c13 -16 12 -17 -3 -4
-17 13 -22 21 -14 21 2 0 10 -8 17 -17z m83 -71 c-1 -2 -19 7 -38 20 -20 14
-33 28 -30 31 7 6 74 -45 68 -51z m99 -75 c9 -3 21 -15 27 -26 9 -17 8 -20 -5
-15 -8 4 -15 12 -15 20 0 8 -7 14 -15 14 -8 0 -19 9 -25 20 -6 11 -17 20 -24
20 -17 0 -38 24 -29 33 3 4 21 -8 39 -27 18 -18 39 -36 47 -39z m4892 -17
c-10 -11 -20 -18 -23 -15 -7 6 18 35 31 35 5 0 2 -9 -8 -20z m-67 -53 c-20
-18 -53 -45 -74 -62 -41 -33 -116 -97 -124 -105 -3 -3 -31 -27 -62 -52 -31
-25 -54 -49 -50 -53 4 -4 2 -5 -4 -3 -10 3 -67 -39 -120 -88 -12 -12 -37 -32
-56 -44 l-33 -22 31 29 c16 15 50 44 73 63 24 19 57 47 72 63 16 15 31 27 35
27 4 0 19 11 33 24 25 24 102 90 171 149 17 15 36 27 40 27 5 0 18 14 30 30
12 17 28 30 36 30 8 0 17 7 21 15 3 9 8 13 11 10 4 -3 -10 -20 -30 -38z
m-4731 -12 c21 -19 43 -35 48 -35 6 0 23 -16 38 -36 16 -19 31 -33 34 -31 2 3
20 -10 38 -29 19 -19 37 -34 41 -34 8 0 54 -49 54 -57 0 -4 -8 1 -17 10 -10 9
-31 27 -48 41 -96 80 -125 106 -125 112 1 6 -15 17 -66 44 -18 10 -50 50 -40
50 3 0 22 -16 43 -35z m318 -258 c4 5 5 2 0 -6 -7 -12 -10 -11 -22 4 -7 11
-13 15 -13 9 0 -5 -4 -2 -9 6 -6 8 -7 18 -4 23 3 5 13 -3 22 -17 10 -14 21
-23 26 -19z m73 -67 c9 -16 8 -16 -12 -7 -12 6 -30 22 -41 35 l-18 25 30 -18
c16 -9 35 -25 41 -35z m60 -45 c15 -13 45 -41 67 -60 26 -24 32 -31 15 -23
-14 7 -37 24 -51 38 -14 14 -35 32 -47 40 -12 8 -22 18 -22 22 0 14 10 9 38
-17z m3742 -72 c-14 -9 -53 -41 -88 -70 -35 -29 -68 -53 -73 -53 -6 0 -8 -4
-5 -9 3 -5 -1 -12 -9 -15 -13 -5 -14 -2 -5 15 6 11 19 23 28 26 9 3 28 17 42
29 70 65 106 94 120 94 9 0 5 -7 -10 -17z m-3580 -70 c0 -2 -13 4 -29 13 -17
10 -28 21 -25 25 4 7 54 -29 54 -38z m41 -33 c31 -26 15 -26 -18 0 -14 11 -21
20 -15 20 5 0 20 -9 33 -20z m77 -60 c5 0 19 -15 32 -32 l23 -33 -23 20 c-13
11 -36 30 -50 43 -13 12 -28 22 -33 22 -4 0 -6 4 -2 10 3 5 14 1 25 -10 11
-11 24 -20 28 -20z m3250 -10 c-7 -11 -16 -20 -20 -20 -5 0 -17 -9 -28 -20
-11 -11 -20 -16 -20 -12 0 8 68 72 76 72 2 0 -1 -9 -8 -20z m-3095 -124 c26
-22 47 -43 47 -48 0 -4 -10 1 -22 13 -62 56 -75 67 -95 78 -13 6 -23 19 -23
28 0 12 5 11 23 -8 13 -13 45 -42 70 -63z m2985 32 c-21 -16 -55 -45 -75 -64
-21 -18 -44 -34 -51 -34 -9 0 -8 -7 4 -25 9 -14 14 -25 11 -25 -2 0 -12 11
-21 25 -16 24 -16 26 1 32 10 3 33 21 51 40 17 18 32 31 32 27 0 -3 17 11 37
30 21 19 40 33 43 30 3 -3 -12 -19 -32 -36z m-2907 -127 c-7 -12 -16 -21 -21
-21 -5 0 -25 -16 -44 -35 -20 -19 -41 -35 -48 -35 -8 1 -4 7 7 15 11 8 34 26
50 40 17 14 36 31 43 36 7 6 11 18 7 28 -5 12 -3 13 5 5 9 -9 9 -17 1 -33z
m2841 -35 c10 -7 15 -15 12 -19 -3 -3 4 -8 15 -12 11 -3 30 -18 41 -32 11 -14
20 -20 20 -13 0 7 12 -3 28 -23 15 -20 31 -36 36 -37 5 0 27 -16 50 -36 22
-19 53 -45 68 -57 113 -91 180 -152 149 -135 -14 7 -37 24 -52 38 -15 14 -44
39 -64 55 -20 17 -42 35 -48 40 -7 6 -35 29 -62 50 -63 50 -89 73 -123 108
-14 15 -31 27 -37 27 -6 0 -22 14 -37 30 -27 31 -25 39 4 16z m-2997 -96 c-16
-16 -31 -27 -34 -25 -6 6 52 63 58 58 3 -2 -8 -17 -24 -33z m-72 -60 c-17 -16
-33 -26 -37 -23 -8 9 14 33 31 33 7 0 16 7 20 15 3 9 8 13 11 10 4 -3 -8 -19
-25 -35z m-73 -60 c-16 -16 -33 -30 -37 -30 -5 0 -21 -12 -35 -27 -53 -54
-125 -109 -133 -101 -3 3 7 13 22 23 15 10 39 29 53 42 14 13 28 23 33 23 4 0
5 5 1 12 -4 6 -3 9 2 5 5 -3 31 15 58 39 56 50 80 59 36 14z m3716 -271 c16
-16 34 -29 38 -29 5 0 19 -10 31 -22 12 -13 41 -39 65 -58 25 -19 79 -65 121
-102 42 -38 81 -68 86 -68 5 0 19 -10 30 -22 11 -13 38 -38 59 -55 22 -18 55
-46 74 -63 19 -17 54 -45 78 -62 23 -17 42 -35 42 -40 0 -4 5 -8 11 -8 14 0
31 -18 54 -55 14 -23 5 -18 -36 22 -73 70 -135 123 -144 123 -4 0 -20 12 -35
28 -15 15 -44 41 -64 57 -21 17 -43 35 -49 40 -7 6 -36 30 -66 55 -30 25 -66
54 -79 65 -13 11 -33 30 -45 43 -11 12 -25 22 -30 22 -5 0 -22 12 -37 28 -16
15 -35 32 -43 37 -16 13 -136 114 -161 137 -11 10 -24 18 -28 18 -5 0 -6 5 -3
10 6 10 49 -23 131 -101z m-3926 98 c0 -11 -50 -45 -55 -37 -3 5 7 16 22 24
31 17 33 18 33 13z m-94 -80 c-22 -17 -52 -44 -67 -59 -15 -16 -32 -28 -37
-28 -6 0 -18 -10 -26 -22 -9 -12 -16 -19 -16 -15 0 3 -21 -14 -47 -38 -27 -25
-51 -45 -54 -45 -3 0 -17 -10 -31 -22 -14 -13 -47 -41 -74 -63 -27 -22 -61
-52 -77 -67 -15 -15 -42 -37 -60 -50 -18 -12 -38 -30 -45 -40 -7 -10 -17 -18
-22 -18 -5 0 -24 -15 -42 -33 -18 -18 -49 -43 -68 -57 -35 -24 -35 -23 6 18
23 23 46 42 52 42 6 0 15 6 19 14 4 8 58 55 118 105 61 50 121 102 135 116 14
14 28 25 32 25 4 0 18 10 31 23 21 19 148 125 201 167 10 8 28 25 39 38 11 12
27 22 34 22 7 0 13 5 13 10 0 6 6 10 13 10 6 0 -6 -15 -27 -33z m-702 -602
c-4 -8 -9 -15 -13 -15 -9 0 -45 -72 -42 -84 1 -4 -2 -13 -7 -20 -5 -6 -8 -366
-8 -799 1 -702 -2 -877 -15 -781 -2 16 -4 377 -3 802 0 606 3 775 13 781 6 4
11 12 10 17 -3 10 17 56 39 92 16 25 35 30 26 7z m5476 -105 c3 -3 5 -15 4
-28 -1 -12 3 -25 7 -28 13 -8 12 -1544 -1 -1544 -5 0 -10 -11 -10 -24 0 -43
-37 -113 -88 -165 -27 -28 -52 -48 -55 -45 -3 4 -22 -4 -42 -16 -25 -16 -58
-24 -104 -28 -74 -5 -193 15 -170 28 8 6 16 4 21 -3 9 -15 215 -17 226 -1 4 5
23 16 42 24 33 13 142 110 124 110 -5 0 -4 4 1 8 15 10 35 59 35 86 0 12 3 26
8 30 9 10 9 1536 0 1536 -5 0 -8 13 -8 28 0 15 -8 44 -19 64 -10 21 -16 40
-13 43 3 3 13 -11 21 -32 8 -21 17 -40 21 -43z m-2175 -130 c0 -66 -3 -120 -7
-120 -7 0 -9 220 -2 232 3 4 6 8 7 8 1 0 2 -54 2 -120z m2 -145 c0 -8 -4 -15
-9 -15 -4 0 -8 7 -8 15 0 8 4 15 8 15 5 0 9 -7 9 -15z m0 -40 c0 -8 -4 -15 -9
-15 -4 0 -8 7 -8 15 0 8 4 15 8 15 5 0 9 -7 9 -15z m0 -40 c0 -8 -4 -15 -9
-15 -4 0 -8 7 -8 15 0 8 4 15 8 15 5 0 9 -7 9 -15z m-2 -200 c0 -96 -3 -175
-7 -175 -4 0 -7 79 -6 175 1 96 4 175 7 175 3 0 6 -79 6 -175z m-1520 -156 c4
-12 7 -336 7 -720 l1 -699 30 -58 c16 -31 41 -70 56 -87 l26 -30 -33 30 c-19
17 -47 58 -63 92 l-29 62 0 704 c0 533 -3 706 -12 715 -9 9 -9 12 -1 12 7 0
15 -10 18 -21z m1876 -11 c33 -30 22 -31 -13 0 -20 16 -20 14 -20 -95 0 -24
-3 -43 -7 -43 -3 0 -5 21 -4 48 1 26 2 64 2 85 1 20 3 37 5 37 2 0 19 -14 37
-32z m-1981 -59 c-41 -37 -79 -69 -84 -69 -5 0 -23 -16 -41 -34 -18 -19 -35
-32 -39 -29 -3 4 -6 0 -6 -7 0 -7 -3 -10 -7 -7 -7 7 25 47 37 47 8 0 54 37
111 91 21 20 40 34 43 32 2 -2 14 9 27 25 13 16 26 27 29 25 3 -3 -29 -36 -70
-74z m1627 26 c0 -8 -4 -15 -9 -15 -4 0 -8 7 -8 15 0 8 4 15 8 15 5 0 9 -7 9
-15z m453 -52 c0 -3 -13 5 -30 17 -16 12 -30 26 -30 31 0 5 14 -3 30 -18 17
-14 30 -28 30 -30z m-453 12 c0 -8 -4 -15 -9 -15 -4 0 -8 7 -8 15 0 8 4 15 8
15 5 0 9 -7 9 -15z m0 -40 c0 -8 -4 -15 -9 -15 -4 0 -8 7 -8 15 0 8 4 15 8 15
5 0 9 -7 9 -15z m500 -8 c10 -12 32 -31 48 -41 17 -11 36 -28 43 -38 7 -10 17
-18 22 -18 5 0 22 -12 38 -27 17 -16 47 -41 67 -58 21 -16 54 -45 74 -64 l36
-33 -33 22 c-19 13 -46 34 -60 48 -15 13 -43 36 -62 51 -19 14 -52 42 -73 61
-21 19 -49 41 -61 50 -12 8 -29 21 -37 28 -8 7 -23 19 -34 27 -17 12 -17 14
-3 15 9 0 25 -10 35 -23z m-502 -147 c0 -72 -3 -130 -8 -130 -4 0 -7 59 -6
130 0 72 4 130 7 130 4 0 7 -59 7 -130z m322 35 c0 -30 -3 -53 -5 -50 -8 8 -9
105 -2 105 4 0 7 -25 7 -55z m-2137 20 c0 -2 -22 -22 -49 -44 -28 -21 -48 -40
-46 -43 2 -2 -11 -11 -28 -21 -32 -17 -32 -17 -10 2 12 10 19 21 16 25 -4 3
-1 6 5 6 6 0 32 18 57 40 45 39 55 45 55 35z m-1593 -71 c-3 -3 -12 -4 -19 -1
-8 3 -5 6 6 6 11 1 17 -2 13 -5z m3730 -79 c0 -25 -3 -43 -5 -40 -8 8 -9 85
-1 85 3 0 6 -20 6 -45z m-2299 13 c-3 -7 -20 -20 -39 -31 l-34 -18 30 29 c32
32 49 40 43 20z m2872 -94 c0 -2 -6 -6 -12 -10 -7 -4 -10 -4 -6 1 5 5 -2 13
-14 19 -12 6 -23 17 -26 25 -3 8 8 4 27 -10 17 -12 31 -24 31 -25z m-2941 32
c-2 -2 -51 -43 -109 -90 -58 -48 -114 -95 -125 -105 -21 -19 -77 -50 -60 -33
6 5 32 26 58 46 27 20 45 36 40 36 -4 0 6 9 23 19 17 10 43 30 59 44 15 14 37
33 48 43 12 11 30 24 41 31 21 12 33 17 25 9z m2045 -56 c1 -28 -2 -50 -6 -50
-5 0 -8 26 -8 57 0 31 3 53 7 49 4 -3 7 -29 7 -56z m324 25 c0 -13 -4 -22 -9
-20 -9 6 -8 45 2 45 4 0 7 -11 7 -25z m642 -65 c6 -11 15 -20 21 -20 6 0 22
-11 37 -24 78 -71 119 -105 123 -102 2 2 15 -11 29 -30 14 -18 29 -32 35 -30
5 1 23 -12 40 -29 16 -18 40 -37 52 -44 13 -6 27 -21 33 -34 l11 -22 -20 23
c-10 12 -24 22 -29 22 -6 0 -19 11 -29 23 -10 13 -30 30 -43 37 -14 7 -34 22
-45 34 -31 31 -116 106 -121 106 -5 0 -40 29 -80 66 -18 17 -35 30 -37 28 -2
-2 -14 8 -28 22 l-24 27 32 -17 c18 -9 37 -25 43 -36z m-642 5 c0 -13 -4 -22
-9 -20 -9 6 -8 45 2 45 4 0 7 -11 7 -25z m-323 -55 c1 -11 -2 -20 -7 -20 -4 0
-8 12 -8 27 0 30 13 24 15 -7z m323 -36 c1 -20 -1 -35 -4 -32 -8 9 -13 68 -5
68 4 0 8 -16 9 -36z m-323 -24 c1 -11 -2 -20 -7 -20 -4 0 -8 12 -8 27 0 30 13
24 15 -7z m323 -45 c0 -13 -4 -22 -9 -20 -9 6 -8 45 2 45 4 0 7 -11 7 -25z
m-323 -15 c1 -11 -2 -20 -7 -20 -4 0 -8 12 -8 27 0 30 13 24 15 -7z m-2366 -2
c-13 -10 -37 -30 -54 -44 -47 -39 -54 -44 -61 -44 -12 0 28 40 40 40 6 0 24
15 39 34 16 18 36 33 44 33 12 0 9 -6 -8 -19z m2688 -38 c-1 -11 -5 -20 -9
-20 -3 0 -6 9 -5 20 1 11 5 20 9 20 3 0 6 -9 5 -20z m-323 -90 c1 -49 -2 -90
-6 -90 -5 0 -8 44 -8 97 0 53 3 93 7 90 3 -4 7 -47 7 -97z m326 40 c0 -11 -2
-20 -4 -20 -2 0 -6 9 -9 20 -3 11 -1 20 4 20 5 0 9 -9 9 -20z m-2834 -35 c-13
-14 -28 -25 -34 -25 -6 0 -17 -9 -25 -20 -8 -11 -17 -17 -20 -13 -4 3 -7 2 -7
-4 0 -6 -12 -19 -27 -28 l-27 -18 24 31 c14 17 31 31 37 31 7 1 18 10 25 20 7
11 18 17 27 13 9 -3 13 -2 9 3 -4 4 0 14 10 21 28 22 33 16 8 -11z m2832 -20
c0 -13 -4 -22 -9 -20 -9 6 -8 45 2 45 4 0 7 -11 7 -25z m1060 -27 c7 -7 12
-16 12 -20 0 -15 -15 -8 -28 12 -13 22 -3 27 16 8z m-1060 -33 c0 -13 -4 -22
-9 -20 -9 6 -8 45 2 45 4 0 7 -11 7 -25z m1153 -50 c20 -16 52 -42 70 -57 18
-16 29 -28 23 -28 -6 0 -34 20 -63 45 -29 25 -56 45 -59 45 -4 0 -16 13 -27
28 -19 27 -19 27 0 12 11 -8 36 -28 56 -45z m-4833 28 c-4 -14 32 -93 42 -93
5 0 10 -6 10 -14 0 -31 122 -112 163 -107 9 1 17 -3 17 -8 0 -6 -11 -11 -25
-11 -14 0 -25 4 -25 9 0 5 -15 15 -34 21 -37 12 -136 111 -136 136 0 7 -5 14
-12 14 -6 0 -8 3 -5 6 3 4 2 14 -3 24 -5 10 -6 20 -3 24 9 8 14 8 11 -1z m695
-28 c-10 -6 -27 -15 -38 -19 -16 -6 -15 -3 5 17 14 13 31 21 38 19 9 -3 8 -8
-5 -17z m2661 -35 c1 -28 -2 -50 -6 -50 -5 0 -8 26 -8 57 0 31 3 53 7 49 4 -3
7 -29 7 -56z m326 35 c0 -8 -4 -15 -8 -15 -5 0 -9 7 -9 15 0 8 4 15 9 15 4 0
8 -7 8 -15z m-2 -50 c0 -13 -4 -22 -9 -20 -9 6 -8 45 2 45 4 0 7 -11 7 -25z
m-3057 -4 c-12 -9 -41 -33 -64 -53 -23 -20 -44 -35 -47 -32 -2 3 15 22 39 42
25 20 49 41 55 48 5 6 17 11 25 11 10 0 7 -6 -8 -16z m3056 -166 c0 -75 -3
-133 -6 -129 -8 7 -8 264 0 264 3 0 6 -61 6 -135z m-323 65 c1 -28 -2 -50 -6
-50 -5 0 -8 26 -8 57 0 31 3 53 7 50 3 -4 7 -30 7 -57z m1631 20 c-3 -5 -17 0
-30 12 -33 29 -31 32 5 13 17 -9 28 -20 25 -25z m-4485 -15 c0 -6 -88 -48
-105 -50 -5 -1 -17 -5 -26 -9 -9 -4 -43 -5 -75 -3 l-59 3 68 2 c37 1 67 7 67
12 0 6 10 10 23 11 12 0 40 9 62 19 48 22 45 21 45 15z m4535 -15 c22 -11 34
-20 27 -20 -15 0 -72 28 -72 35 0 7 3 7 45 -15z m-1680 -80 c1 -11 -2 -20 -7
-20 -4 0 -8 12 -8 27 0 30 13 24 15 -7z m-1 -86 c1 -25 -2 -48 -6 -51 -5 -2
-8 22 -8 53 0 67 13 65 14 -2z m326 -70 c0 -8 -4 -12 -10 -9 -5 3 -10 10 -10
16 0 5 5 9 10 9 6 0 10 -7 10 -16z m-8 -37 c-6 -7 -9 -25 -8 -40 2 -15 1 -25
-2 -22 -6 6 -36 -55 -33 -68 1 -5 -3 -6 -9 -2 -6 4 -2 20 10 43 11 20 20 48
20 63 0 27 7 39 23 39 5 0 5 -5 -1 -13z m-80 -169 c-11 -18 -31 -36 -44 -41
-18 -6 -14 1 17 32 22 23 42 41 43 41 2 0 -5 -14 -16 -32z m-1612 -48 c0 -11
64 -40 90 -40 10 0 21 -7 24 -16 4 -10 2 -13 -7 -7 -6 4 -16 8 -22 9 -51 9
-132 64 -95 64 6 0 10 -4 10 -10z m1514 -28 c-21 -9 -41 -18 -44 -21 -10 -12
-39 -11 -46 0 -5 8 -2 10 7 7 8 -3 35 4 59 16 25 12 49 20 54 17 5 -2 -9 -11
-30 -19z m-98 -35 c4 -4 -8 -7 -27 -8 -19 0 -64 -1 -102 -2 -39 -1 -67 2 -67
8 0 6 -4 4 -9 -3 -9 -15 -17 -15 -43 -1 -10 5 -18 6 -18 2 0 -10 -132 -9 -148
1 -7 4 -12 4 -12 -1 0 -10 -452 -9 -468 1 -7 4 -12 4 -12 -1 0 -10 -131 -10
-148 1 -7 4 -12 4 -12 -1 0 -4 -33 -7 -72 -7 -95 2 -148 7 -148 14 0 8 1278 5
1286 -3z"/>
<path d="M2106 6722 c-3 -5 1 -9 9 -9 8 0 12 4 9 9 -3 4 -7 8 -9 8 -2 0 -6 -4
-9 -8z"/>
<path d="M2110 6376 c0 -2 8 -10 18 -17 15 -13 16 -12 3 4 -13 16 -21 21 -21
13z"/>
<path d="M2547 6059 c7 -7 15 -10 18 -7 3 3 -2 9 -12 12 -14 6 -15 5 -6 -5z"/>
<path d="M7385 6040 c-3 -6 1 -7 9 -4 18 7 21 14 7 14 -6 0 -13 -4 -16 -10z"/>
<path d="M7315 5969 c-4 -6 -5 -12 -2 -15 2 -3 7 2 10 11 7 17 1 20 -8 4z"/>
<path d="M7275 5889 c-4 -6 -5 -12 -2 -15 2 -3 7 2 10 11 7 17 1 20 -8 4z"/>
<path d="M7184 5882 c4 -3 14 -7 22 -8 9 -1 13 0 10 4 -4 3 -14 7 -22 8 -9 1
-13 0 -10 -4z"/>
<path d="M3199 5473 c-13 -16 -12 -17 4 -4 16 13 21 21 13 21 -2 0 -10 -8 -17
-17z"/>
<path d="M3265 5240 c-3 -6 1 -7 9 -4 18 7 21 14 7 14 -6 0 -13 -4 -16 -10z"/>
<path d="M7829 3733 c-13 -16 -12 -17 4 -4 9 7 17 15 17 17 0 8 -8 3 -21 -13z"/>
<path d="M7870 3559 c0 -5 5 -7 10 -4 6 3 10 8 10 11 0 2 -4 4 -10 4 -5 0 -10
-5 -10 -11z"/>
<path d="M5987 3259 c7 -7 15 -10 18 -7 3 3 -2 9 -12 12 -14 6 -15 5 -6 -5z"/>
<path d="M3955 3201 c-3 -5 -2 -12 3 -15 5 -3 9 1 9 9 0 17 -3 19 -12 6z"/>
<path d="M6026 3158 c3 -5 10 -6 15 -3 13 9 11 12 -6 12 -8 0 -12 -4 -9 -9z"/>
<path d="M6126 3118 c3 -5 10 -6 15 -3 13 9 11 12 -6 12 -8 0 -12 -4 -9 -9z"/>
<path d="M3915 3040 c-3 -5 -1 -10 4 -10 6 0 11 5 11 10 0 6 -2 10 -4 10 -3 0
-8 -4 -11 -10z"/>
<path d="M6355 2961 c-3 -5 -2 -12 3 -15 5 -3 9 1 9 9 0 17 -3 19 -12 6z"/>
<path d="M6225 2839 c-3 -4 2 -6 10 -5 21 3 28 13 10 13 -9 0 -18 -4 -20 -8z"/>
<path d="M6395 2841 c-3 -5 -2 -12 3 -15 5 -3 9 1 9 9 0 17 -3 19 -12 6z"/>
<path d="M3226 2562 c-3 -5 1 -9 9 -9 8 0 12 4 9 9 -3 4 -7 8 -9 8 -2 0 -6 -4
-9 -8z"/>
<path d="M3505 2480 c-3 -6 1 -7 9 -4 18 7 21 14 7 14 -6 0 -13 -4 -16 -10z"/>
<path d="M2115 2451 c-3 -5 -2 -12 3 -15 5 -3 9 1 9 9 0 17 -3 19 -12 6z"/>
<path d="M7020 2366 c0 -2 8 -10 18 -17 15 -13 16 -12 3 4 -13 16 -21 21 -21
13z"/>
<path d="M2830 2279 c0 -5 5 -7 10 -4 6 3 10 8 10 11 0 2 -4 4 -10 4 -5 0 -10
-5 -10 -11z"/>
<path d="M4026 1758 c3 -5 10 -6 15 -3 13 9 11 12 -6 12 -8 0 -12 -4 -9 -9z"/>
<path d="M4750 1726 c0 -2 7 -7 16 -10 8 -3 12 -2 9 4 -6 10 -25 14 -25 6z"/>
<path d="M5230 1726 c0 -2 7 -7 16 -10 8 -3 12 -2 9 4 -6 10 -25 14 -25 6z"/>
<path d="M4790 1686 c0 -2 7 -7 16 -10 8 -3 12 -2 9 4 -6 10 -25 14 -25 6z"/>
<path d="M5276 1678 c3 -5 10 -6 15 -3 13 9 11 12 -6 12 -8 0 -12 -4 -9 -9z"/>
<path d="M4715 1600 c-3 -5 -1 -10 4 -10 6 0 11 5 11 10 0 6 -2 10 -4 10 -3 0
-8 -4 -11 -10z"/>
<path d="M4826 1598 c3 -5 10 -6 15 -3 13 9 11 12 -6 12 -8 0 -12 -4 -9 -9z"/>
<path d="M5215 1521 c-3 -5 -2 -12 3 -15 5 -3 9 1 9 9 0 17 -3 19 -12 6z"/>
<path d="M5426 1362 c-3 -5 1 -9 9 -9 8 0 12 4 9 9 -3 4 -7 8 -9 8 -2 0 -6 -4
-9 -8z"/>
</g>
</svg>
